<svg width="206" height="48" viewBox="0 0 206 48" fill="none" xmlns="http://www.w3.org/2000/svg">
<g clip-path="url(#clip0_315_23348)">
<path d="M19.9348 31.9052C19.9348 31.808 19.9517 31.6901 19.7968 31.6724C19.5274 31.6415 19.447 31.6679 19.3936 31.8302C19.2786 32.1821 19.1681 32.535 19.0512 32.885C19.0343 32.9366 19.0369 33.0048 18.9584 33.0383C18.9288 32.9803 18.902 32.9208 18.8784 32.8601C18.7766 32.5557 18.6764 32.2508 18.5777 31.9451C18.4868 31.6634 18.4883 31.6679 18.1955 31.6679C18.064 31.6679 18.0102 31.712 18.0117 31.8479C18.0166 32.3327 18.0151 32.8175 18.0117 33.3024C18.0117 33.4131 18.0403 33.4768 18.1673 33.4745C18.2944 33.4722 18.3079 33.4029 18.3075 33.3042C18.306 32.9444 18.306 32.5848 18.3075 32.2254C18.3075 32.1809 18.2917 32.1301 18.3346 32.0871C18.3939 32.1625 18.4097 32.2502 18.439 32.3312C18.559 32.67 18.6776 33.009 18.7946 33.3483C18.8288 33.4481 18.8953 33.4764 18.9945 33.4745C19.0937 33.4726 19.1362 33.4184 19.1647 33.3321C19.2282 33.1411 19.2981 32.952 19.3643 32.7618C19.4455 32.5282 19.5251 32.2939 19.6101 32.0461C19.654 32.1128 19.6375 32.1678 19.6379 32.2194C19.6379 32.5787 19.6405 32.9385 19.6379 33.2978C19.6379 33.4074 19.6615 33.4737 19.7882 33.4737C19.9148 33.4737 19.9351 33.3984 19.9348 33.2929C19.9363 32.8315 19.9393 32.3685 19.9348 31.9052Z" fill="white"/>
<path d="M28.2229 32.4623C28.1199 32.4623 28.0166 32.4623 27.9136 32.4623C27.8185 32.4623 27.8008 32.5255 27.7956 32.6043C27.7914 32.6909 27.8396 32.7207 27.9158 32.7214C28.0027 32.7214 28.0898 32.7214 28.1766 32.7237C28.2518 32.7263 28.3405 32.7071 28.3691 32.8039C28.4014 32.9128 28.3976 33.0224 28.3067 33.1053C28.006 33.3833 27.4491 33.2341 27.3247 32.8446C27.2544 32.625 27.2871 32.4155 27.3777 32.2091C27.4119 32.1222 27.4713 32.0475 27.5483 31.9948C27.6253 31.9421 27.7163 31.9138 27.8095 31.9134C28.0169 31.9051 28.2124 31.9511 28.3168 32.1624C28.351 32.2313 28.3894 32.2408 28.4593 32.2193C28.6569 32.1579 28.6757 32.0987 28.5397 31.9383C28.2214 31.5635 27.569 31.539 27.2082 31.8889C26.8835 32.2035 26.8944 32.961 27.233 33.2631C27.5088 33.5091 27.8343 33.5392 28.1808 33.4631C28.519 33.3878 28.6543 33.233 28.6539 32.8939C28.652 32.3843 28.7062 32.4683 28.2229 32.4623Z" fill="white"/>
<path d="M7.04364 31.6682C6.9106 31.6682 6.91361 31.7436 6.91436 31.8377C6.91737 32.2235 6.91436 32.6096 6.91436 32.9953L6.86851 33.0126C6.77569 32.8684 6.68061 32.7248 6.58967 32.5794C6.41943 32.3075 6.24919 32.0351 6.0827 31.7609C6.00454 31.6321 5.88315 31.6761 5.77492 31.678C5.68698 31.678 5.67871 31.7533 5.67871 31.8208C5.67871 32.3218 5.67934 32.8228 5.68059 33.3238C5.68059 33.4244 5.72644 33.4745 5.82866 33.4745C5.93088 33.4745 5.97485 33.4255 5.97297 33.3238C5.97071 33.1874 5.97297 33.0514 5.97297 32.9151C5.97297 32.6514 5.97297 32.3877 5.97297 32.1029C6.06767 32.1719 6.09886 32.2483 6.1417 32.3161C6.3623 32.6653 6.58553 33.0134 6.80124 33.366C6.88204 33.4986 7.0023 33.4839 7.11767 33.4635C7.23868 33.4424 7.20824 33.3306 7.20862 33.2488C7.21125 32.7806 7.20862 32.312 7.212 31.8438C7.21538 31.7221 7.17367 31.6686 7.04364 31.6682Z" fill="white"/>
<path d="M1.3967 32.4619C1.29373 32.4619 1.19038 32.4619 1.08703 32.4619C0.994209 32.4619 0.971285 32.5271 0.963393 32.604C0.954373 32.6928 1.00774 32.7192 1.08215 32.7215C1.15656 32.7237 1.23435 32.7215 1.31026 32.7249C1.39256 32.7298 1.5008 32.697 1.52372 32.819C1.54664 32.9411 1.54514 33.059 1.42376 33.14C1.15317 33.3212 0.756323 33.2605 0.572554 33.0085C0.360975 32.7181 0.422231 32.2367 0.696194 32.0148C0.933328 31.8238 1.24299 31.8822 1.48877 32.1704C1.57859 32.2762 1.65563 32.1971 1.73455 32.1647C1.83338 32.124 1.77927 32.0619 1.74845 32.0061C1.54627 31.64 0.866059 31.5195 0.49589 31.7846C0.14451 32.0363 0.0576992 32.4868 0.184722 32.9369C0.279049 33.2726 0.608631 33.4771 1.0115 33.4809C1.08177 33.4809 1.1528 33.4809 1.22308 33.4775C1.64247 33.459 1.81685 33.2726 1.8052 32.856C1.79242 32.4597 1.79242 32.4597 1.3967 32.4619Z" fill="white"/>
<path d="M30.1122 32.8615C30.0423 32.7752 30.0062 32.7221 30.1573 32.6712C30.3294 32.6128 30.4444 32.4851 30.4523 32.2821C30.4666 31.9088 30.2712 31.6884 29.8886 31.6749C29.6394 31.6658 29.3895 31.6749 29.14 31.6707C29.0209 31.6685 28.9742 31.7178 28.9761 31.8357C28.9803 32.0802 28.9761 32.3254 28.9761 32.5699H28.9788C28.9788 32.8257 28.9788 33.0814 28.9788 33.3368C28.9788 33.4431 29.0396 33.4766 29.1374 33.4747C29.2351 33.4728 29.2738 33.4269 29.273 33.3331C29.273 33.1824 29.273 33.0283 29.2749 32.8761C29.2749 32.8208 29.2794 32.7669 29.3407 32.739C29.4511 32.6893 29.6571 32.739 29.7364 32.8407C29.8593 32.9993 29.9923 33.1526 30.096 33.3237C30.1832 33.4668 30.2993 33.4868 30.4414 33.4743C30.479 33.4706 30.5237 33.4743 30.5369 33.4295C30.5474 33.3952 30.5147 33.3719 30.4944 33.3466C30.3692 33.1839 30.2426 33.0215 30.1122 32.8615ZM29.6195 32.4908C29.2437 32.4878 29.2775 32.5262 29.2768 32.1544C29.2768 31.9122 29.2817 31.9077 29.5229 31.9077C29.6635 31.9077 29.8044 31.9001 29.9427 31.9416C30.066 31.9792 30.143 32.0546 30.1441 32.1849C30.1453 32.3153 30.0945 32.4132 29.9596 32.4603C29.8424 32.5013 29.7236 32.4844 29.6195 32.4908Z" fill="white"/>
<path d="M3.25573 32.8451C3.18244 32.7599 3.18244 32.7162 3.29782 32.6725C3.55675 32.5742 3.63867 32.4416 3.62627 32.1753C3.61575 31.941 3.49511 31.7903 3.26061 31.7101C3.07271 31.6479 2.88293 31.683 2.72208 31.6724C2.56349 31.6724 2.43271 31.6747 2.3023 31.6724C2.20009 31.6698 2.15198 31.7123 2.15386 31.8171C2.15562 32.3241 2.15562 32.8311 2.15386 33.3381C2.15386 33.4346 2.1967 33.4756 2.29178 33.4768C2.38686 33.4779 2.45188 33.4523 2.45075 33.3415C2.45075 33.2161 2.45075 33.091 2.45075 32.9648C2.453 32.7584 2.49998 32.7196 2.70442 32.7283C2.80438 32.7324 2.86639 32.7878 2.919 32.8579C3.03175 33.0051 3.14449 33.1528 3.24295 33.3099C3.31811 33.4274 3.41093 33.4918 3.55186 33.4764C3.59846 33.4711 3.66085 33.4941 3.68565 33.4425C3.71459 33.3833 3.65596 33.343 3.62439 33.3027C3.50489 33.1464 3.38237 32.9957 3.25573 32.8451ZM2.77244 32.4985C2.41505 32.4891 2.45263 32.5128 2.45188 32.1617C2.45188 31.9093 2.45188 31.9078 2.70254 31.909C2.83219 31.909 2.96297 31.8935 3.09037 31.9304C3.21777 31.9674 3.31586 32.0457 3.31586 32.1907C3.31586 32.3358 3.24069 32.4518 3.0791 32.4721C2.97725 32.4846 2.87466 32.4902 2.77244 32.4985Z" fill="white"/>
<path d="M31.5737 31.6433C31.0299 31.6433 30.7052 31.9993 30.7007 32.5986C30.6962 33.1693 31.019 33.4801 31.626 33.4891C32.0976 33.4963 32.4392 33.135 32.4422 32.6257C32.4456 32.0204 32.1111 31.6422 31.5737 31.6433ZM32.0082 33.0035C31.918 33.158 31.7515 33.2431 31.5301 33.2443C31.4336 33.2375 31.3407 33.2048 31.2613 33.1494C31.1819 33.094 31.119 33.0181 31.0792 32.9297C30.8992 32.5451 31.0623 32.052 31.4118 31.9371C31.6372 31.8637 31.9086 31.9563 32.0183 32.1631C32.1656 32.4419 32.169 32.7278 32.0082 33.0035Z" fill="white"/>
<path d="M8.60991 31.7526C8.30588 31.6313 7.98907 31.6814 7.67603 31.6772C7.57944 31.6772 7.56892 31.7526 7.56892 31.8279V32.5783C7.56892 32.8231 7.5723 33.068 7.56892 33.3124C7.56667 33.4315 7.6159 33.4797 7.73315 33.4774C7.94473 33.4733 8.15668 33.4812 8.36789 33.4737C8.5211 33.4723 8.66963 33.4206 8.79072 33.3265C8.91182 33.2324 8.99879 33.1011 9.03832 32.9527C9.10335 32.7097 9.10257 32.4536 9.03607 32.211C8.97782 31.9786 8.82562 31.8366 8.60991 31.7526ZM8.66966 32.9956C8.56406 33.193 8.13827 33.3185 7.93947 33.2326C7.87107 33.2028 7.86769 33.1426 7.86694 33.0819C7.86694 32.9083 7.86694 32.7342 7.86694 32.5606C7.86694 32.4099 7.87182 32.2562 7.86694 32.1044C7.86092 31.9703 7.92481 31.913 8.04995 31.916C8.29385 31.9206 8.53437 31.9443 8.67267 32.1861C8.82261 32.451 8.81096 32.729 8.66966 32.993V32.9956Z" fill="white"/>
<path d="M13.5098 32.5176C13.3744 32.4611 13.2334 32.4193 13.0892 32.393C13.0033 32.3778 12.9218 32.3437 12.8506 32.2931C12.6954 32.1801 12.7003 32.0671 12.869 31.9677C13.087 31.8392 13.3418 31.895 13.4564 32.1183C13.5316 32.266 13.627 32.1997 13.7157 32.1677C13.8424 32.1217 13.7694 32.0351 13.7364 31.9677C13.6075 31.704 13.3651 31.6569 13.1445 31.6437C12.9901 31.6412 12.8367 31.6697 12.6935 31.7277C12.5056 31.8031 12.4421 31.9537 12.4304 32.1421C12.4188 32.3304 12.5026 32.4536 12.6653 32.5342C12.7524 32.5791 12.8454 32.6114 12.9415 32.6303C13.0794 32.658 13.2134 32.7018 13.341 32.761C13.4406 32.8051 13.5203 32.8649 13.5071 32.993C13.5044 33.0479 13.4849 33.1007 13.4513 33.1441C13.4177 33.1876 13.3716 33.2196 13.3192 33.236C13.2594 33.2616 13.1951 33.2747 13.1301 33.2748C13.065 33.2748 13.0007 33.2617 12.9408 33.2362C12.881 33.2107 12.8269 33.1733 12.7818 33.1264C12.7368 33.0794 12.7016 33.0238 12.6785 32.9629C12.6172 32.819 12.518 32.8774 12.4353 32.8996C12.3391 32.9256 12.3662 33.0066 12.3951 33.0748C12.4857 33.291 12.6413 33.4285 12.8739 33.4752C13.0506 33.5058 13.2314 33.5041 13.4075 33.4703C13.6439 33.4326 13.8078 33.2688 13.8318 33.0559C13.8634 32.7983 13.7544 32.6216 13.5098 32.5176Z" fill="white"/>
<path d="M23.3072 32.525C23.1193 32.4569 22.9197 32.4162 22.7292 32.3525C22.633 32.3205 22.5221 32.2772 22.5266 32.1487C22.5311 32.0146 22.6337 31.9547 22.7499 31.9227C22.9618 31.8628 23.1257 31.9174 23.2362 32.1111C23.3113 32.2433 23.4241 32.2003 23.5064 32.1709C23.6146 32.1333 23.533 32.0421 23.512 31.9785C23.4926 31.9275 23.4641 31.8805 23.4278 31.8398C23.2087 31.5716 22.5108 31.5814 22.2963 31.8541C22.2525 31.907 22.2216 31.9692 22.206 32.0361C22.1903 32.1029 22.1903 32.1724 22.206 32.2392C22.2217 32.3061 22.2527 32.3683 22.2964 32.4211C22.3402 32.4739 22.3956 32.5158 22.4582 32.5435C22.5469 32.5849 22.6403 32.6153 22.7363 32.6339C22.9062 32.6671 23.0776 32.7025 23.217 32.82C23.3207 32.9074 23.32 33.0065 23.2523 33.1093C23.2236 33.1527 23.1859 33.1894 23.1418 33.2168C23.0978 33.2443 23.0483 33.262 22.9968 33.2686C22.7656 33.3063 22.5638 33.2001 22.4661 32.959C22.4015 32.8 22.2955 32.8795 22.2083 32.8946C22.1053 32.9127 22.1553 32.9944 22.1707 33.0524C22.2545 33.3507 22.509 33.4999 22.9224 33.4833C23.0415 33.4895 23.1608 33.4746 23.2749 33.4393C23.4831 33.3639 23.6131 33.2012 23.6232 32.9929C23.6289 32.891 23.6011 32.79 23.544 32.7055C23.4869 32.6209 23.4037 32.5576 23.3072 32.525Z" fill="white"/>
<path d="M4.85915 31.824C4.81669 31.7151 4.77121 31.6356 4.64607 31.6733C4.54648 31.6677 4.45403 31.6492 4.40781 31.7682C4.203 32.2956 3.99442 32.8207 3.7866 33.347C3.77044 33.388 3.75278 33.4294 3.80389 33.46C3.88544 33.5116 4.07823 33.466 4.09401 33.3737C4.15677 33.0083 4.3909 32.9379 4.7077 32.9872C4.75637 32.9932 4.8056 32.9932 4.85427 32.9872C4.961 32.9782 5.02939 33.0147 5.05946 33.1251C5.08604 33.208 5.1169 33.2895 5.15191 33.3692C5.2064 33.5108 5.33079 33.4901 5.4285 33.4618C5.5544 33.4242 5.46044 33.3364 5.43752 33.2784C5.24699 32.7936 5.04894 32.3103 4.85915 31.824ZM4.81293 32.7503H4.63442C4.31461 32.7503 4.31574 32.7503 4.44201 32.4516C4.49011 32.3367 4.53145 32.2191 4.57805 32.1039C4.58745 32.0805 4.60398 32.05 4.62427 32.0428C4.65547 32.0319 4.66787 32.0666 4.67764 32.0911C4.74879 32.2724 4.81957 32.4538 4.88997 32.6354C4.91853 32.71 4.89523 32.7503 4.81293 32.7503Z" fill="white"/>
<path d="M21.2348 19.1711C21.6632 18.3881 22.0915 17.6048 22.5197 16.8213C22.8995 16.1297 23.2814 15.4391 23.6655 14.7495C23.7918 14.5235 23.7828 14.5054 23.5174 14.5054H22.0973C21.4444 14.5054 20.7917 14.5054 20.1393 14.5054C20.0202 14.5054 19.918 14.5189 19.8511 14.6421C19.4907 15.3073 19.125 15.9696 18.7612 16.6329C18.2885 17.4963 17.8155 18.3606 17.3422 19.2257C16.9412 19.9554 16.5353 20.6828 16.1344 21.4124C15.8036 22.0129 15.4742 22.6143 15.146 23.2168C14.8645 23.7328 14.5857 24.25 14.3038 24.7657C14.0922 25.1526 13.8769 25.5368 13.6649 25.9233C13.6292 25.9881 13.5977 26.0099 13.5522 25.9338C13.5304 25.8962 13.5075 25.8585 13.4868 25.8208C13.2767 25.4336 13.0685 25.0449 12.8562 24.6584C12.3143 23.6709 11.7714 22.684 11.2274 21.6976C10.9859 21.2586 10.7447 20.8191 10.5036 20.3791C10.4604 20.3004 10.4101 20.2499 10.3011 20.2507C9.4093 20.2567 8.51751 20.2541 7.62572 20.2552C7.41301 20.2552 7.40512 20.2631 7.40512 20.4759C7.40512 21.4626 7.40512 22.4493 7.40512 23.436C7.40512 23.662 7.40963 23.6654 7.63061 23.6658H10.8283C11.0286 23.6658 11.0313 23.6684 10.9347 23.8485C10.4567 24.7405 9.74151 25.3552 8.79711 25.7157C7.84632 26.0781 6.8959 26.0623 5.9639 25.6901C4.99958 25.3051 4.27277 24.638 3.81692 23.6906C2.98338 21.953 3.46366 19.8977 5.0646 18.7315C6.3134 17.8263 7.67683 17.6993 9.09625 18.3269C9.20411 18.3744 9.30933 18.429 9.43448 18.4893C9.43222 18.3928 9.39201 18.3458 9.36345 18.2941C9.02898 17.6835 8.69151 17.074 8.35817 16.4623C8.02971 15.8596 7.70401 15.2569 7.38107 14.6542C7.33372 14.5664 7.27133 14.5265 7.1725 14.5336C6.96129 14.5494 6.74821 14.5494 6.53889 14.5766C4.90638 14.7841 3.48584 15.4497 2.29227 16.5821C1.7248 17.1242 1.24852 17.7548 0.881873 18.4493C0.159573 19.7968 -0.112887 21.2327 0.0419453 22.7459C0.153332 23.8564 0.518408 24.9262 1.10886 25.8724C1.77938 26.9692 2.72536 27.8702 3.85225 28.4856C4.94225 29.0915 6.17001 29.4048 7.4164 29.3949C8.1505 29.3918 8.8805 29.2849 9.5848 29.0773C10.4646 28.8208 11.2477 28.3865 11.9738 27.838C12.5781 27.3819 13.0839 26.8296 13.5172 26.2111C13.6104 26.0777 13.63 26.1414 13.6807 26.2326C14.2681 27.2945 14.8604 28.3541 15.447 29.4175C15.5248 29.5584 15.5597 29.5203 15.6195 29.4111C16.2083 28.3375 16.7983 27.2645 17.3895 26.1919C18.0472 24.994 18.7044 23.7959 19.361 22.5975C19.9856 21.4554 20.6102 20.3132 21.2348 19.1711Z" fill="white"/>
<path d="M33.8078 29.4471C34.4028 28.37 35.0012 27.295 35.603 26.2222C35.6609 26.1194 35.6695 26.0357 35.6101 25.9348C35.5109 25.766 35.4192 25.5927 35.3249 25.4213C34.6913 24.2724 34.0579 23.1235 33.4248 21.9746C32.8791 20.9826 32.3351 19.9899 31.7927 18.9965C31.0095 17.5696 30.2268 16.1423 29.4446 14.7146C29.3725 14.5824 29.2879 14.5263 29.1372 14.5293C28.5664 14.5357 27.9952 14.5319 27.4243 14.5319C26.8535 14.5319 26.2822 14.5376 25.7114 14.5281C25.5528 14.5259 25.4652 14.5816 25.3912 14.7191C24.9335 15.5731 24.469 16.4237 24.0045 17.2739C23.5272 18.148 23.048 19.0213 22.567 19.8938C22.5016 20.012 22.5065 20.107 22.5734 20.2264C23.1747 21.2992 23.7727 22.3741 24.3675 23.4512C24.4261 23.5571 24.4682 23.568 24.5295 23.4546C25.0969 22.4059 25.6652 21.3577 26.2341 20.31C26.6099 19.6154 26.9825 18.9194 27.3518 18.222C27.4168 18.0996 27.4611 18.1297 27.5126 18.225C27.6163 18.4164 27.7186 18.6089 27.823 18.7998C28.2885 19.6497 28.7543 20.4992 29.2203 21.3485C29.7214 22.2606 30.2213 23.1722 30.7201 24.0833C31.0313 24.6514 31.342 25.2196 31.6521 25.7879C31.9637 26.3555 32.2782 26.9217 32.5916 27.4898C32.9502 28.1427 33.3073 28.7974 33.6631 29.4538C33.7176 29.557 33.7495 29.5529 33.8078 29.4471Z" fill="white"/>
<path d="M16.6361 31.7902C16.5918 31.6772 16.5133 31.6704 16.4163 31.6712C16.3193 31.6719 16.2352 31.678 16.1908 31.7887C15.9969 32.2844 15.7973 32.7783 15.6053 33.2748C15.5835 33.3305 15.5076 33.3934 15.5602 33.4484C15.6128 33.5034 15.7045 33.474 15.7797 33.471C15.8612 33.4676 15.88 33.4047 15.9022 33.3403C16.0236 32.9889 16.0247 32.9889 16.3941 32.9896H16.4268C16.8564 32.9896 16.7898 32.9629 16.9255 33.3245C16.9605 33.4179 17.0007 33.4966 17.1213 33.4733C17.2679 33.4917 17.2919 33.4356 17.2386 33.3053C17.0339 32.8018 16.8331 32.2968 16.6361 31.7902ZM16.5828 32.7519C16.47 32.7519 16.3547 32.7519 16.2404 32.7519C16.1611 32.7519 16.1277 32.7165 16.1581 32.6389C16.2359 32.4378 16.316 32.2374 16.4099 31.9985C16.5328 32.2272 16.5892 32.4329 16.6696 32.628C16.7038 32.7127 16.6715 32.7523 16.5828 32.7515V32.7519Z" fill="white"/>
<path d="M34.1692 31.6742C34.0166 31.6425 33.967 31.6862 33.9629 31.8463C33.9539 32.2151 34.0005 32.5869 33.9084 32.9515C33.8625 33.1305 33.7479 33.2295 33.5638 33.2423C33.2143 33.2672 33.0376 33.1048 33.0297 32.7462C33.0249 32.4362 33.0267 32.1258 33.0297 31.8154C33.0297 31.7115 32.9831 31.6708 32.8794 31.67C32.7757 31.6693 32.7265 31.7077 32.7291 31.812C32.7291 31.9913 32.7291 32.171 32.7291 32.3507C32.7291 32.4705 32.7291 32.5903 32.7291 32.7101C32.7291 33.2374 32.9377 33.4589 33.4548 33.4913C33.8734 33.5177 34.144 33.3527 34.2304 32.9579C34.3169 32.5632 34.2579 32.156 34.2583 31.7525C34.2571 31.7039 34.2169 31.684 34.1692 31.6742Z" fill="white"/>
<path d="M21.7176 31.668C21.5963 31.6699 21.5598 31.7129 21.5632 31.8342C21.5715 32.1441 21.5715 32.4543 21.5632 32.765C21.5553 33.0825 21.3866 33.2464 21.09 33.2441C20.8067 33.2422 20.6466 33.0844 20.6342 32.762C20.6225 32.4523 20.6263 32.1415 20.6379 31.8315C20.6421 31.7268 20.6248 31.6752 20.5166 31.6718C20.4166 31.6684 20.3287 31.6718 20.3287 31.8101C20.3313 32.1423 20.3151 32.4753 20.3362 32.806C20.3542 33.0889 20.4583 33.3481 20.759 33.4464C20.9782 33.516 21.2136 33.5154 21.4324 33.4445C21.6579 33.3733 21.7864 33.2038 21.8371 32.974C21.8856 32.7533 21.8571 32.5292 21.8657 32.3337C21.8657 32.1491 21.8582 31.9909 21.8683 31.8334C21.8774 31.7121 21.842 31.6658 21.7176 31.668Z" fill="white"/>
<path d="M26.0435 32.8451C25.9131 32.7806 25.847 32.8149 25.803 32.9517C25.7429 33.1381 25.599 33.2293 25.4088 33.2406C25.2186 33.2519 25.0586 33.1818 24.9608 33.0048C24.8034 32.7196 24.8004 32.433 24.9608 32.1493C25.0676 31.9591 25.2615 31.8822 25.4738 31.9233C25.6121 31.9508 25.7181 32.0182 25.7745 32.1493C25.8406 32.306 25.9492 32.2491 26.0432 32.2013C26.1604 32.141 26.0774 32.0676 26.0379 32.0005C25.7748 31.5515 25.1472 31.5839 24.8639 31.8122C24.5328 32.0785 24.4978 32.4284 24.5576 32.8014C24.6328 33.2767 24.9526 33.5152 25.4314 33.4851C25.8218 33.4606 26.0356 33.3061 26.1138 33.0006C26.1296 32.9249 26.1187 32.8827 26.0435 32.8451Z" fill="white"/>
<path d="M35.5307 31.6843C35.2503 31.6591 34.967 31.6745 34.6844 31.6727C34.6258 31.6727 34.6021 31.6915 34.6036 31.7608C34.61 32.0215 34.6062 32.2825 34.6062 32.5436H34.616V32.9203C34.616 33.051 34.6212 33.1821 34.6134 33.312C34.6073 33.4171 34.6284 33.477 34.7505 33.477C34.8727 33.477 34.9181 33.4254 34.9155 33.3098C34.9129 33.1941 34.9185 33.0702 34.9155 32.9508C34.9121 32.8408 34.958 32.7914 35.07 32.7944C35.2056 32.7978 35.3417 32.7978 35.477 32.7911C35.799 32.7745 35.9873 32.588 36.0001 32.2806C36.0132 31.9409 35.849 31.7148 35.5307 31.6843ZM35.5307 32.5066C35.3612 32.5861 35.1797 32.5598 35.0019 32.55C34.9433 32.547 34.9215 32.4987 34.92 32.4456C34.9178 32.3748 34.92 32.304 34.92 32.2335C34.9166 31.9017 34.9166 31.9028 35.2507 31.9081C35.3676 31.91 35.4788 31.9284 35.575 31.9974C35.6171 32.0272 35.6507 32.0676 35.6723 32.1145C35.694 32.1614 35.703 32.2132 35.6984 32.2646C35.6938 32.3161 35.6759 32.3655 35.6463 32.4078C35.6167 32.4501 35.5766 32.484 35.5299 32.5059L35.5307 32.5066Z" fill="white"/>
<path d="M11.4894 31.6791C11.4601 31.6661 11.4283 31.6595 11.3963 31.6598C11.3643 31.66 11.3326 31.6671 11.3036 31.6806C11.2745 31.6941 11.2486 31.7136 11.2276 31.7379C11.2066 31.7622 11.1911 31.7907 11.182 31.8215C11.0953 32.0726 11.0076 32.3238 10.9189 32.5749C10.8524 32.7632 10.7832 32.9489 10.7133 33.1399C10.6502 33.0985 10.6382 33.0424 10.622 32.9934C10.5093 32.6868 10.4014 32.3786 10.2906 32.0716C10.253 31.9643 10.2154 31.8546 10.1677 31.7514C10.1087 31.626 9.98804 31.655 9.89559 31.6817C9.79637 31.71 9.86515 31.7948 9.88469 31.846C10.0839 32.3523 10.2887 32.8566 10.4901 33.3625C10.5277 33.4563 10.5998 33.4714 10.6874 33.4714C10.775 33.4714 10.8618 33.462 10.9005 33.3607C10.9493 33.2333 11.0001 33.1071 11.0508 32.9806C11.2049 32.5964 11.3601 32.2125 11.5123 31.8279C11.5315 31.7797 11.5751 31.7175 11.4894 31.6791Z" fill="white"/>
<path d="M15.408 31.6699C14.9788 31.6722 14.5497 31.6726 14.1205 31.6733C14.019 31.6733 13.9935 31.7332 13.9957 31.824C13.998 31.9197 14.0562 31.9253 14.1284 31.9197C14.1882 31.9148 14.2479 31.9121 14.3077 31.9129C14.5895 31.9155 14.6106 31.9347 14.6124 32.2169C14.6151 32.5819 14.6162 32.9465 14.6124 33.3116C14.6124 33.4148 14.6256 33.4777 14.7489 33.4777C14.8654 33.4777 14.8969 33.4298 14.8924 33.3187C14.8841 33.1176 14.8902 32.9156 14.8902 32.7141H14.8947C14.8947 32.4964 14.8977 32.2787 14.8947 32.0609C14.8928 31.9615 14.9416 31.92 15.0307 31.9182C15.1551 31.9155 15.2802 31.9182 15.4065 31.9208C15.505 31.9238 15.5046 31.8568 15.5069 31.7893C15.5091 31.7219 15.4933 31.6695 15.408 31.6699Z" fill="white"/>
<path d="M11.9235 31.67C11.7781 31.6718 11.7732 31.7607 11.7751 31.8666C11.7751 32.3457 11.7751 32.8249 11.7751 33.3041C11.7751 33.3881 11.7533 33.4849 11.898 33.4788C12.0216 33.4736 12.0746 33.4265 12.0724 33.301C12.0682 33.0562 12.0724 32.8113 12.0724 32.5661C12.0724 32.3318 12.0724 32.0979 12.0724 31.8636C12.0742 31.7589 12.0709 31.6677 11.9235 31.67Z" fill="white"/>
<path d="M24.0709 31.6697C23.942 31.6678 23.916 31.7371 23.9175 31.8453C23.9202 32.0848 23.9175 32.3248 23.9175 32.5644C23.9175 32.8039 23.9175 33.0541 23.9175 33.2997C23.9175 33.3946 23.9254 33.4737 24.0525 33.4744C24.1723 33.4744 24.2171 33.4206 24.2167 33.3057C24.2149 32.8152 24.2149 32.3255 24.2167 31.8366C24.2178 31.7315 24.1892 31.6712 24.0709 31.6697Z" fill="white"/>
<path d="M15.69 14.5C14.9945 14.5 14.2992 14.5 13.6042 14.5C12.8902 14.5 12.1796 14.5 11.4678 14.5C11.2799 14.5 11.2509 14.5573 11.3396 14.7162C11.473 14.9554 11.6087 15.1935 11.7391 15.4342C12.1089 16.1156 12.4847 16.7937 12.8421 17.4815C13.0364 17.856 13.2908 18.1972 13.4306 18.6026C13.4911 18.777 13.6317 18.7841 13.7226 18.6259C13.9222 18.2786 14.1138 17.926 14.3063 17.5746C14.6159 17.0095 14.9169 16.4396 15.2364 15.8794C15.333 15.7107 15.4243 15.5404 15.5148 15.3683C15.6276 15.1581 15.7501 14.9539 15.8478 14.7354C15.9455 14.517 15.9282 14.5 15.69 14.5Z" fill="#E60012"/>
<path d="M26.7028 27.248C26.7028 26.9448 26.557 26.8012 26.2518 26.8005C25.6543 26.8005 25.0567 26.8005 24.4592 26.8005C23.8455 26.8005 23.2315 26.7979 22.6178 26.8005C22.3318 26.8024 22.1863 26.9512 22.1852 27.2341C22.1837 27.8712 22.1837 28.5083 22.1852 29.1454C22.1852 29.4121 22.3216 29.5511 22.5813 29.5556C23.1243 29.5643 23.667 29.5748 24.2101 29.5782C24.873 29.582 25.5358 29.582 26.1984 29.5782C26.5634 29.5782 26.7028 29.4355 26.7028 29.0757C26.7033 28.4672 26.7033 27.858 26.7028 27.248ZM26.1466 29.2878C25.5866 29.2878 25.0267 29.2878 24.4671 29.2878C23.9124 29.2878 23.3581 29.2908 22.8038 29.2878C22.4836 29.2855 22.4426 29.2053 22.4524 28.939C22.4648 28.6071 22.4524 28.2745 22.4562 27.9419C22.4562 27.8933 22.4351 27.8134 22.514 27.8138C22.5873 27.8138 22.5772 27.8914 22.5776 27.9426C22.5794 28.2749 22.5776 28.6075 22.5776 28.9397C22.5776 29.1492 22.596 29.1898 22.8068 29.1834C23.1428 29.1733 23.4795 29.1518 23.8143 29.168C24.4494 29.1989 25.0834 29.165 25.7178 29.1642C25.864 29.1642 26.0083 29.1902 26.1564 29.1804C26.2612 29.1737 26.3067 29.1386 26.3067 29.0369C26.3067 28.4593 26.3081 27.8817 26.3108 27.3041C26.3108 27.2371 26.2811 27.202 26.2161 27.1971C26.1729 27.1938 26.1293 27.1926 26.0861 27.1926C25.0913 27.1926 24.0966 27.1926 23.1018 27.1949C23.0266 27.1949 22.8955 27.1448 22.8929 27.2755C22.8902 27.3953 23.0127 27.3945 23.1063 27.3949C23.3833 27.3949 23.6606 27.3949 23.9376 27.3975C24.1229 27.3975 24.2382 27.4993 24.2412 27.6857C24.2491 28.0669 24.2446 28.4485 24.2412 28.8297C24.2412 28.8674 24.2506 28.9341 24.1883 28.9269C24.1334 28.9209 24.1462 28.858 24.1458 28.8173C24.1458 28.4741 24.1458 28.131 24.1439 27.7874C24.1439 27.546 24.1154 27.5162 23.8692 27.5173C23.5705 27.5214 23.2718 27.5076 22.9748 27.4759C22.7869 27.4544 22.8102 27.3019 22.7869 27.1975C22.7613 27.0785 22.8898 27.0992 22.9624 27.0845C23.0368 27.0715 23.1124 27.0664 23.1879 27.0694C24.165 27.1 25.1421 27.0495 26.1192 27.0676C26.38 27.0725 26.4258 27.1139 26.4262 27.3689C26.4262 27.9136 26.4262 28.4584 26.4262 29.0034C26.4326 29.249 26.395 29.2874 26.1466 29.2878ZM23.4878 28.1811C23.4528 28.1732 23.4002 28.1781 23.3968 28.1298C23.3934 28.0816 23.446 28.0812 23.4802 28.0714C23.507 28.0658 23.5307 28.0503 23.5467 28.028C23.5626 28.0056 23.5696 27.9782 23.5663 27.9509C23.5663 27.8816 23.5235 27.8582 23.4637 27.8477C23.4231 27.8405 23.36 27.8443 23.3634 27.7886C23.3679 27.7132 23.4385 27.7509 23.4806 27.7433C23.5445 27.7324 23.6099 27.729 23.6546 27.7245C23.6939 27.7237 23.7332 27.7257 23.7722 27.7305C23.8271 27.7426 23.9177 27.7275 23.9181 27.7991C23.9184 27.8707 23.832 27.8394 23.7828 27.8481C23.7223 27.8586 23.6779 27.8857 23.6813 27.9517C23.6847 28.0176 23.7268 28.0436 23.7884 28.053C23.8369 28.0601 23.9135 28.0375 23.9143 28.1185C23.9143 28.2067 23.8339 28.1664 23.7888 28.1792C23.7645 28.1826 23.7422 28.1945 23.7258 28.2127C23.7094 28.231 23.6999 28.2544 23.699 28.279C23.6948 28.3423 23.7317 28.3777 23.7809 28.4078C23.9312 28.499 24.0094 28.7529 23.9391 28.9054C23.9124 28.9638 23.8602 28.9755 23.8064 28.9846C23.6749 29.0068 23.5475 28.971 23.419 28.9555C23.4 28.9539 23.3821 28.9458 23.3684 28.9325C23.3547 28.9191 23.346 28.9015 23.3438 28.8825C23.3209 28.7397 23.3637 28.6022 23.3814 28.4628C23.3867 28.4191 23.4325 28.4101 23.4727 28.4131C23.5407 28.4184 23.5746 28.3898 23.5731 28.3197C23.5686 28.2572 23.5629 28.1988 23.4878 28.1811ZM25.3405 27.8823C25.3333 27.833 25.2807 27.8447 25.2454 27.8447C25.1533 27.839 25.0609 27.8307 24.9688 27.8338C24.7948 27.8398 24.8004 27.7245 24.8001 27.6036C24.7997 27.4827 24.8001 27.3866 24.9658 27.3904C25.2642 27.3972 25.5626 27.3934 25.8613 27.3904C25.9767 27.3904 26.0493 27.4179 26.0301 27.5554C26.0243 27.5985 26.0257 27.6423 26.0342 27.685C26.0575 27.8149 25.9921 27.85 25.8783 27.8439C25.8023 27.8394 25.7261 27.8394 25.6501 27.8439C25.5972 27.8481 25.5085 27.8202 25.5126 27.9091C25.516 27.9844 25.6005 27.9746 25.6577 27.9765C25.7659 27.9799 25.8745 27.9765 25.9831 27.9765C26.0361 27.9703 26.0897 27.9805 26.1368 28.0055C26.0943 28.0843 26.029 28.0733 25.973 28.0737C25.6149 28.076 25.2568 28.076 24.8985 28.0737C24.8531 28.0737 24.7764 28.0895 24.7738 28.0319C24.7704 27.952 24.8527 27.9807 24.9 27.9773C25.0192 27.9694 25.1387 27.9716 25.2571 27.9615C25.2976 27.9607 25.3476 27.9347 25.3397 27.8823H25.3405ZM25.9418 28.5789C25.7952 28.6165 25.6524 28.5683 25.5051 28.5856C25.306 28.6034 25.1055 28.5983 24.9076 28.5706C24.7771 28.5555 24.7858 28.4658 24.7809 28.3822C24.776 28.2896 24.8298 28.2425 24.9218 28.2421H25.4423V28.2372C25.5926 28.2372 25.7467 28.2444 25.8978 28.2346C26.0008 28.2282 26.0526 28.2602 26.0579 28.3641C26.0601 28.4602 26.0658 28.5457 25.9391 28.5789H25.9418Z" fill="#E60012"/>
<path d="M25.4756 27.6635C25.5485 27.7264 25.6353 27.7219 25.7221 27.7211C25.7439 27.7211 25.7653 27.7211 25.7871 27.7211C25.8676 27.717 25.9623 27.7287 25.9675 27.6081C25.9728 27.4876 25.8777 27.4951 25.798 27.4797C25.6428 27.4514 25.4884 27.4925 25.3298 27.471C25.2148 27.4552 25.0829 27.4401 24.9634 27.4898C24.9025 27.5151 24.8627 27.555 24.8754 27.6266C24.8871 27.6921 24.9367 27.7143 24.9946 27.7151C25.1122 27.7174 25.2332 27.7418 25.3407 27.6657C25.3591 27.6492 25.3829 27.6398 25.4077 27.6394C25.4325 27.639 25.4566 27.6475 25.4756 27.6635Z" fill="#E60012"/>
<path d="M23.4302 28.7035C23.428 28.8523 23.4983 28.9122 23.6298 28.8945C23.7609 28.8967 23.8598 28.8768 23.8523 28.7204C23.8447 28.5554 23.7809 28.491 23.6099 28.4895C23.4641 28.488 23.4321 28.5799 23.4302 28.7035Z" fill="#E60012"/>
<path d="M25.8554 28.3426C25.5743 28.3535 25.2939 28.2718 25.0128 28.3385C24.9632 28.3501 24.8892 28.3358 24.8982 28.4172C24.905 28.4827 24.9677 28.4963 25.0234 28.4974C25.1534 28.5004 25.2838 28.4974 25.4138 28.4974V28.4944C25.56 28.4944 25.7066 28.4974 25.8528 28.4925C25.9001 28.4925 25.9565 28.4744 25.952 28.4089C25.949 28.3554 25.8994 28.3411 25.8554 28.3426Z" fill="#E60012"/>
</g>
<g clip-path="url(#clip1_315_23348)">
<path d="M59.2358 14.4999L58.6856 18.4328H59.3756L59.1891 19.5961C59.1762 19.7209 59.1163 19.8362 59.0213 19.9192C58.939 19.9924 58.8335 20.0348 58.7229 20.0392H53.492L53.2123 22.098H56.8114C57.027 22.0893 57.2416 22.1297 57.4389 22.2161C57.6361 22.3026 57.8106 22.4327 57.949 22.5966C58.0856 22.7677 58.1837 22.9658 58.2368 23.1776C58.2899 23.3894 58.2967 23.6099 58.2567 23.8244L57.0166 32.8998C57.007 33.0589 56.9357 33.2083 56.8175 33.3167C56.6994 33.425 56.5436 33.4841 56.3825 33.4814H53.2309L54.527 23.9722C54.5351 23.9305 54.5343 23.8876 54.5246 23.8463C54.515 23.805 54.4967 23.7661 54.4711 23.7321C54.4384 23.6951 54.3984 23.6654 54.3534 23.6447C54.3084 23.624 54.2596 23.6129 54.21 23.6121H53.0071L51.8882 31.7457C51.8199 32.2187 51.5815 32.6514 51.2169 32.9644C50.881 33.2909 50.4288 33.4733 49.9581 33.4722H48L48.2611 31.6257L48.4289 30.4163L50.5269 15.183C50.5485 15.0323 50.6247 14.8945 50.7413 14.7953C50.8467 14.6951 50.9869 14.6389 51.133 14.6383H54.2473L53.7158 18.4328H55.0585L55.4594 15.4231C55.4869 15.1621 55.6135 14.9211 55.8138 14.7491C55.9035 14.6658 56.009 14.6008 56.1243 14.5581C56.2395 14.5153 56.3621 14.4955 56.4851 14.4999H59.2358ZM73.2222 18.3036L72.9984 19.9838L69.0263 27.3696L71.059 33.5368H69.8188C69.19 33.5302 68.5798 33.3252 68.0767 32.9516C67.5736 32.5781 67.204 32.0554 67.0215 31.4595C66.7181 32.0772 66.2467 32.5988 65.6603 32.9657C65.0739 33.3327 64.3958 33.5304 63.7021 33.5368H61.9305L65.2872 27.3696L63.5902 22.9843L62.5086 31.0441C62.4543 31.3681 62.3439 31.6805 62.1822 31.9673C62.0273 32.2594 61.8293 32.527 61.5948 32.7613C61.3482 32.9768 61.0679 33.1514 60.7649 33.2783C60.4726 33.4119 60.1545 33.4812 59.8325 33.4814H58.2567L58.5364 31.4041L58.7602 29.9177L60.8209 14.7214H64.7837L64.5226 16.3463L64.4201 17.2141L64.2616 18.3405L73.2222 18.3036ZM67.3945 23.409L69.2034 19.9007H64.0378L63.8979 21.3133H65.9492C66.1757 21.3143 66.396 21.3864 66.5786 21.5191C66.7612 21.6517 66.8967 21.8382 66.9656 22.0519L67.3945 23.409ZM73.7071 14.7861C73.6211 15.2819 73.368 15.7343 72.9891 16.0693C72.6237 16.4026 72.1431 16.5844 71.6464 16.5771H64.8676L65.138 14.7307H73.7071V14.7861Z" fill="white"/>
<path d="M74.5181 33.5L76.7372 19.3746C76.7612 19.2074 76.8437 19.0538 76.9704 18.9407C77.0963 18.8307 77.2593 18.7714 77.4272 18.7745H79.1149L77.0449 31.9121C76.9744 32.355 76.7502 32.7598 76.4109 33.0569C76.0857 33.3455 75.6634 33.5035 75.2267 33.5H74.5181ZM83.861 14.5L83.6559 16.1526H86.7888L86.649 17.1589C86.6255 17.3315 86.5432 17.4911 86.4159 17.6113C86.2895 17.7277 86.1222 17.7906 85.9496 17.7867H83.4321L81.418 32.6783C81.3801 32.9042 81.2688 33.1116 81.101 33.2692C80.9402 33.4204 80.726 33.5032 80.5043 33.5H77.5485L79.7024 17.7867H76.672L76.8118 16.7157C76.8424 16.5734 76.9174 16.4442 77.0263 16.3465C77.1431 16.2479 77.2924 16.1953 77.4459 16.1987H79.8889L80.0101 15.1278C80.0334 14.9577 80.1158 14.8011 80.2432 14.6846C80.3652 14.5663 80.5292 14.5 80.7001 14.5H83.861ZM83.861 18.7745H85.6046C85.6703 18.7741 85.7352 18.7879 85.7948 18.815C85.8544 18.8421 85.9073 18.8819 85.9496 18.9315C85.9967 18.9838 86.0319 19.0454 86.0528 19.1123C86.0737 19.1792 86.0799 19.2498 86.0709 19.3192L84.4111 33.5C84.1255 33.5054 83.8424 33.4458 83.5838 33.3258C83.3251 33.2057 83.0977 33.0284 82.9192 32.8076C82.7253 32.5792 82.5806 32.314 82.494 32.0282C82.4074 31.7424 82.3808 31.4421 82.4157 31.1458L83.861 18.7745ZM92.9708 30.9057C93.3727 31.6814 93.9814 32.3332 94.731 32.7906C95.4805 33.2479 96.3423 33.4933 97.2227 33.5H97.9593L94.2296 26.0219L99.9734 16.8819L100.095 16.0695C100.103 15.9516 100.087 15.8333 100.047 15.722C100.007 15.6107 99.9436 15.509 99.8615 15.4232C99.7916 15.3403 99.7026 15.2752 99.602 15.2334C99.5014 15.1916 99.3921 15.1744 99.2834 15.1832H88.7189C88.436 15.1849 88.1637 15.2901 87.9544 15.4786C87.7305 15.6718 87.5902 15.9429 87.5627 16.2357L87.4788 16.7527H96.1131L92.5233 22.5967L91.1806 18.9038C91.0523 18.5467 90.8162 18.2373 90.5043 18.0176C90.1924 17.7979 89.8197 17.6786 89.4369 17.6759H87.4229L90.1642 25.3756L85.0172 33.5H86.0149C87.0592 33.4941 88.0834 33.2152 88.9839 32.6915C89.8844 32.1679 90.6293 31.4181 91.1433 30.518L92.0011 29.0685L92.9708 30.9057Z" fill="white"/>
<path d="M107.675 14.5H113.354L111.107 31.4504C111.025 31.9996 110.751 32.503 110.333 32.8722C110.146 33.0666 109.922 33.2222 109.674 33.3299C109.426 33.4377 109.159 33.4955 108.888 33.5H106.09L106.314 31.8936H106.678C106.763 31.8951 106.847 31.8776 106.925 31.8425C107.002 31.8073 107.071 31.7554 107.125 31.6905C107.251 31.5355 107.323 31.3445 107.33 31.1458L107.862 27.2128H105.512L104.962 31.4504C104.899 31.9971 104.637 32.5023 104.225 32.8722C104.046 33.0683 103.827 33.2254 103.583 33.3334C103.339 33.4415 103.075 33.4982 102.808 33.5H101.148L103.703 14.5H107.181L106.566 19.3377H108.869L109.317 16.1156H107.508L107.675 14.5ZM108.002 25.5787L108.627 20.9626H106.342L105.717 25.5787H108.002ZM117.699 16.7527L117.149 20.7872H125.615L125.392 22.5228L121.83 28.8469L123.695 33.4631H121.755C121.427 33.4718 121.103 33.3799 120.83 33.1997C120.556 33.0196 120.345 32.7601 120.226 32.4568L119.862 31.5335L119.638 31.9121C119.401 32.3595 119.048 32.7368 118.616 33.0059C118.183 33.275 117.687 33.4263 117.177 33.4446H111.405L113.997 14.5H118.007L117.764 16.2726L117.699 16.7527ZM115.526 32.9645L118.193 28.2468L116.664 24.5539L115.526 32.9645ZM121.876 22.4028H117L116.851 23.326H118.865C118.95 23.3246 119.034 23.3473 119.106 23.3914C119.179 23.4356 119.238 23.4994 119.275 23.5753L120.123 25.5787L121.876 22.4028ZM118.473 14.5H126.473L126.044 17.639C126.001 17.9802 125.89 18.3096 125.718 18.6084C125.57 18.8909 125.371 19.1443 125.13 19.3562C124.895 19.5677 124.619 19.7309 124.319 19.8362C124.02 19.9402 123.704 19.9902 123.387 19.984H119.266L119.368 19.19C119.412 18.9669 119.527 18.7634 119.694 18.6084C119.853 18.4576 120.062 18.3718 120.282 18.3683H121.326C121.448 18.3657 121.566 18.3235 121.662 18.2483C121.767 18.1608 121.84 18.0403 121.867 17.9067L122.072 16.2726H118.231L118.473 14.5Z" fill="white"/>
<path d="M131.219 26.3635H127.937L128.077 25.4402C128.099 25.2605 128.189 25.0957 128.329 24.9786C128.393 24.9171 128.469 24.869 128.552 24.8372C128.635 24.8055 128.724 24.7908 128.814 24.794H132.068L132.338 24.2677C132.39 24.1579 132.474 24.0654 132.578 24.0015C132.682 23.9376 132.803 23.905 132.926 23.9077H136.711L136.245 24.8309H151.807L150.875 31.2935C150.803 31.9064 150.496 32.4684 150.017 32.863C149.553 33.2758 148.953 33.5057 148.329 33.5092H141.243L141.308 33.0845C141.357 32.7603 141.518 32.463 141.765 32.2444C142.02 32.0166 142.355 31.8972 142.697 31.9121H145.877C146.082 31.9088 146.278 31.8298 146.427 31.6905C146.509 31.6284 146.578 31.5506 146.629 31.4618C146.68 31.3731 146.713 31.275 146.726 31.1735L147.397 26.4096H135.406L133.541 29.8625C132.932 30.9642 132.035 31.8838 130.944 32.5253C129.854 33.1668 128.609 33.5066 127.34 33.5092L131.219 26.3635ZM134.716 15.1647L134.94 14.5H131.21C131.075 14.502 130.944 14.5473 130.837 14.6293C130.725 14.7109 130.635 14.8187 130.576 14.9431L128.571 19.2546H132.012C132.24 19.2534 132.463 19.1865 132.653 19.0619C132.844 18.9372 132.994 18.7604 133.084 18.553L135.881 20.0855L130.567 21.812L130.343 21.8858L130.054 21.9781C130.014 21.9711 129.973 21.9711 129.932 21.9781C129.765 22.0184 129.592 22.037 129.42 22.0335H128.189L127.965 23.5107H131.546C132.052 23.5108 132.557 23.4707 133.056 23.3907C133.513 23.3076 133.989 23.1968 134.557 23.0675L140.31 21.6919L145.97 23.086C146.418 23.206 146.837 23.3076 147.229 23.3814H147.378C147.862 23.4637 148.352 23.5039 148.842 23.5015H152.432L152.684 21.8858H150.819C150.648 21.8838 150.478 21.8558 150.315 21.8027L145.178 20.0394L152.721 17.4174L153.047 15.1832L134.716 15.1647ZM135.546 16.7988H146.679L140.721 19.4208L135.546 16.7988Z" fill="white"/>
<path d="M165.486 16.4757H155.835L156.003 15.3494C156.037 15.1148 156.152 14.8992 156.329 14.74C156.5 14.5861 156.723 14.5006 156.954 14.5H179.547L179.36 15.7741C179.337 15.9698 179.241 16.1501 179.091 16.2798C178.942 16.4095 178.748 16.4793 178.549 16.4757H169.719L168.479 25.5049H178.465L178.269 26.9543C178.245 27.148 178.149 27.3258 177.999 27.4529C177.848 27.5862 177.651 27.6587 177.449 27.656H168.125L167.351 33.5H163.117L163.929 27.656H153.849L154.045 26.225C154.085 26.0202 154.193 25.8347 154.353 25.6987C154.499 25.5707 154.689 25.5016 154.884 25.5049H164.208L165.486 16.4757ZM158.959 17.3435C159.173 17.3375 159.387 17.3753 159.586 17.4548C159.785 17.5342 159.965 17.6535 160.115 17.8052C160.266 17.9558 160.384 18.1346 160.464 18.3312C160.544 18.5277 160.584 18.738 160.581 18.95L160.395 24.4893H157.206C157.092 24.4932 156.979 24.4739 156.873 24.4326C156.767 24.3913 156.671 24.3289 156.59 24.2493C156.428 24.0729 156.342 23.8413 156.348 23.603L156.488 17.362L158.959 17.3435ZM174.418 17.5466C174.58 17.4183 174.78 17.3468 174.987 17.3435H178.344L177.225 21.6919C177.041 22.4939 176.591 23.212 175.948 23.7323C175.344 24.2397 174.577 24.5179 173.784 24.517H172.488L174.111 18.0544C174.159 17.8538 174.274 17.6751 174.437 17.5466H174.418Z" fill="white"/>
<path d="M205.497 23.7323L204.415 31.2473C204.377 31.5635 204.275 31.8687 204.114 32.1448C203.954 32.4208 203.739 32.662 203.482 32.8537C203.024 33.2751 202.42 33.5064 201.795 33.5H182.27C181.983 33.5164 181.696 33.4669 181.431 33.3553C181.167 33.2438 180.932 33.0732 180.745 32.8568C180.558 32.6405 180.424 32.3844 180.354 32.1084C180.284 31.8324 180.279 31.544 180.34 31.2658L181.384 23.7323H186.307L185.309 30.758C185.279 30.8836 185.278 31.0142 185.306 31.1404C185.333 31.2666 185.388 31.3851 185.468 31.4874C185.548 31.5866 185.65 31.6658 185.767 31.7187C185.884 31.7716 186.011 31.7967 186.139 31.792H198.391C198.67 31.7932 198.94 31.6911 199.147 31.5058C199.374 31.3261 199.527 31.0698 199.576 30.7857L200.331 25.5049H186.932L187.118 23.7323H205.497ZM181.384 21.9597C181.281 21.7797 181.23 21.5755 181.235 21.3688C181.251 21.1516 181.314 20.9405 181.421 20.7502L185.393 14.5H190.438L187.184 20.0394C187.155 20.0951 187.14 20.1568 187.14 20.2194C187.14 20.282 187.155 20.3436 187.184 20.3994C187.212 20.4515 187.256 20.4937 187.309 20.5202C187.363 20.5466 187.423 20.5561 187.482 20.5471L201.245 20.1963L200.713 15.931H203.417C203.899 15.9181 204.366 16.0902 204.723 16.4111C205.066 16.741 205.276 17.1846 205.31 17.6574L206 22.9383H202.27C202.105 22.9438 201.943 22.8868 201.819 22.7788C201.694 22.6708 201.615 22.5199 201.599 22.3567L201.552 22.052L182.447 22.5413C182.225 22.5609 182.003 22.5091 181.813 22.3936C181.625 22.301 181.473 22.1481 181.384 21.9597Z" fill="white"/>
</g>
<defs>
<clipPath id="clip0_315_23348">
<rect width="36" height="19" fill="white" transform="translate(0 14.5)"/>
</clipPath>
<clipPath id="clip1_315_23348">
<rect width="158" height="19" fill="white" transform="translate(48 14.5)"/>
</clipPath>
</defs>
</svg>
